<svg xmlns="http://www.w3.org/2000/svg" fill="none" viewBox="0 0 145 200" height="200" width="145">
<path fill="#DCED5A" d="M120.568 29.5552C122.283 29.5114 123.947 28.9599 125.349 27.9704C126.75 26.981 127.827 25.598 128.443 23.9964C129.058 22.3948 129.185 20.6466 128.807 18.973C128.429 17.2994 127.563 15.7755 126.319 14.5941C125.074 13.4128 123.507 12.627 121.817 12.3363C120.126 12.0455 118.386 12.2628 116.819 12.9607C115.251 13.6586 113.926 14.8057 113.011 16.2569C112.095 17.7081 111.631 19.3982 111.676 21.1134C111.737 23.4117 112.707 25.5918 114.375 27.1747C116.042 28.7576 118.27 29.6138 120.568 29.5552Z"></path>
<path fill="#7C6252" d="M102.048 97.4028C100.42 97.9291 98.9256 98.804 97.6701 99.9668L97.3837 100.199C90.639 105.545 82.733 109.232 74.3026 110.963C65.8721 112.695 57.1529 112.422 48.847 110.168L48.4788 110.072C47.0257 109.563 45.4897 109.332 43.9511 109.39C42.9477 109.438 41.9841 109.797 41.1945 110.418C40.405 111.039 39.8287 111.891 39.5461 112.854C39.4074 113.811 39.5643 114.788 39.9957 115.653C40.427 116.518 41.1124 117.231 41.9599 117.696C44.3329 119.128 47.5787 119.441 50.4426 119.714L52.6792 119.946C56.4621 120.493 60.2733 120.821 64.094 120.928C67.7555 121.016 71.335 122.03 74.4996 123.874C78.2909 125.947 81.4276 132.397 82.464 134.525C89.4602 148.926 89.2147 167.76 81.7821 186.185C80.582 189.158 79.4501 193.358 80.8139 196.481C81.1344 197.219 81.6058 197.882 82.1976 198.426C82.7895 198.971 83.4888 199.386 84.2506 199.645C85.4576 200.078 86.7708 200.116 88.0009 199.754C88.689 199.563 89.3459 199.274 89.9512 198.895C90.7706 198.394 91.4954 197.752 92.0923 196.999C93.6223 194.812 94.6258 192.301 95.0244 189.662C99.0286 170.319 97.0987 150.217 89.4875 131.988C87.81 127.897 86.2553 123.233 87.3327 118.8C88.1998 115.675 90.0742 112.923 92.6651 110.972C95.3304 108.975 98.3464 107.495 101.557 106.608L101.939 106.499C103.291 106.174 104.575 105.611 105.73 104.835C106.716 104.353 107.469 103.498 107.825 102.46C108.18 101.421 108.109 100.284 107.626 99.2985C107.143 98.3129 106.288 97.5594 105.25 97.2039C104.211 96.8484 103.074 96.92 102.089 97.4028"></path>
<path fill="#C76647" d="M100.684 80.3968C100.149 79.8339 99.4647 79.4349 98.7112 79.2465C97.9578 79.0582 97.1662 79.0882 96.4292 79.333C95.1464 79.7555 93.9599 80.4276 92.9379 81.3105L92.7606 81.4469C82.897 88.9728 70.6359 92.6609 58.2572 91.8252C50.5737 91.2958 43.0988 89.0942 36.355 85.3745C16.362 74.4234 2.49246 48.048 13.5117 26.2413C17.1398 19.1651 22.975 13.4641 30.1336 10.0016C37.2922 6.53922 45.3842 5.50406 53.1839 7.05296C56.0812 7.63052 58.9008 8.54596 61.5848 9.78051C62.4217 10.2012 63.2282 10.6797 63.9986 11.2125C65.6317 12.4693 67.5301 13.3369 69.5492 13.7491C70.5106 13.8851 71.4882 13.659 72.2921 13.1146C73.0961 12.5702 73.669 11.7465 73.8996 10.8033C73.9063 10.7308 73.9063 10.6577 73.8996 10.5851C74.0224 9.42592 73.5996 7.73484 70.913 6.28924C52.5566 -3.65267 29.3861 -1.64793 14.5755 11.1716C6.89744 17.8131 2.0015 27.5368 0.405882 39.3335C-0.651624 48.1172 0.364287 57.0264 3.37212 65.3466C6.37996 73.6667 11.296 81.166 17.7258 87.2429C29.5948 97.8689 45.1846 103.369 61.0938 102.544C65.1605 102.366 69.1992 101.781 73.1496 100.799C82.3165 98.5461 90.8777 94.3097 98.2294 88.3885C99.493 87.4971 100.511 86.3008 101.189 84.9108C101.548 84.1913 101.694 83.3839 101.61 82.584C101.525 81.7841 101.214 81.0252 100.711 80.3968"></path>
<path fill="#446959" d="M139.593 50.0117C136.238 46.4932 131.41 44.1066 125.014 42.7564C122.423 42.2109 119.559 41.8427 116.586 41.3927C106.016 40.0289 94.1789 38.9651 91.5332 29.1187C87.1964 12.9989 105.526 7.96655 104.394 4.17526C104.025 2.92059 103.507 3.04333 102.225 2.70239C97.7247 1.48863 89.3239 7.28467 88.3556 8.15749C83.9098 11.809 81.0347 17.0273 80.323 22.7362C79.4365 31.1644 84.4143 39.8107 92.5969 44.2293C98.052 47.1887 104.353 47.8979 110.326 48.5798C112.808 48.8525 115.372 49.1526 117.786 49.589C127.96 51.471 133.415 55.6168 134.438 62.2721C135.801 71.3139 128.491 79.0465 125.287 81.9513C122.054 84.7703 118.607 87.3329 114.976 89.6157C113.979 90.2266 113.263 91.207 112.985 92.3433C112.894 92.7265 112.888 93.1248 112.965 93.5109C113.043 93.897 113.203 94.2617 113.435 94.5799C113.561 94.7518 113.703 94.9116 113.858 95.0572C114.441 95.4848 115.126 95.7505 115.845 95.8271C116.564 95.9038 117.29 95.7887 117.95 95.4936C118.659 95.2754 119.313 95.0436 120.022 94.7844C129.067 91.3361 136.475 84.5998 140.765 75.9234C145.88 65.8451 145.443 56.1623 139.593 50.0117Z"></path>
</svg>
