<svg xmlns="http://www.w3.org/2000/svg" width="600" viewBox="0 0 600 350" height="350" fill="none"><g fill="#f6f1e4"><path d="m468.531 333.743c.534 9.932-4.903 15.244-11.661 15.59l-1.1-3.175c4.526-.251 7.323-2.42 8.643-5.123-.314.471-1.068 1.132-2.985 1.226-3.866.22-7.795-1.855-8.109-7.543-.283-5.406 2.797-7.952 7.197-8.172 4.369-.252 7.763 1.98 8.015 7.197zm-7.292 5.626c2.42-.125 4.274-2.106 4.117-5.154-.157-2.766-1.54-4.778-4.651-4.621-3.081.189-4.243 2.326-4.118 5.092.157 2.892 2.043 4.872 4.652 4.683z"></path><path d="m443.466 333.743c.535 9.932-4.903 15.244-11.66 15.59l-1.1-3.175c4.526-.251 7.323-2.42 8.643-5.123-.314.471-1.069 1.132-2.986 1.226-3.866.22-7.795-1.855-8.109-7.543-.283-5.406 2.797-7.952 7.198-8.172 4.368-.252 7.763 1.98 8.014 7.197zm-7.291 5.626c2.42-.125 4.274-2.106 4.117-5.154-.157-2.766-1.54-4.778-4.652-4.621-3.08.189-4.243 2.326-4.117 5.092.157 2.892 2.043 4.872 4.652 4.683z"></path><path d="m418.402 333.743c.534 9.932-4.903 15.244-11.661 15.59l-1.1-3.175c4.526-.251 7.323-2.42 8.643-5.123-.314.471-1.068 1.132-2.985 1.226-3.866.22-7.795-1.855-8.109-7.543-.283-5.406 2.797-7.952 7.197-8.172 4.369-.252 7.763 1.98 8.015 7.197zm-7.292 5.626c2.42-.125 4.275-2.106 4.117-5.154-.157-2.766-1.54-4.778-4.651-4.621-3.08.189-4.243 2.326-4.118 5.092.157 2.892 2.043 4.872 4.652 4.683z"></path><path d="m393.039 328.431v18.953c0 .534.031 1.037.125 1.572h-3.866c.095-.535.126-1.038.126-1.572v-16.155c-.754 1.131-2.483 1.571-2.483 1.571l-2.012-2.577c2.421-.911 4.369-3.552 4.369-3.552h3.866c-.125.566-.125 1.258-.125 1.76z"></path><path d="m358.314 342.921v4.463c0 .534.032 1.069.126 1.572h-3.929c.063-.503.126-1.038.126-1.572v-4.495c-.157-.628-5.375-15.715-5.532-16.218h3.803s.126.566.44 1.572l3.112 9.586 3.111-9.586c.252-.943.346-1.572.346-1.572h3.929c-.189.503-5.5 16.061-5.532 16.25z"></path><path d="m340.705 328.431-.031 18.953c0 .534.062 1.069.157 1.572h-4.683c.062-.409.125-.849-.063-1.698l-5.375-15.683.063 15.809c0 .534.031 1.069.126 1.572h-3.929c.063-.503.126-1.038.126-1.572v-18.953c0-.597-.063-1.194-.126-1.76h6.129l4.149 13.075-.252-11.315c0-.597-.031-1.194-.126-1.76h3.961c-.126.566-.126 1.258-.126 1.76z"></path><path d="m318.491 348.956h-4.181c.126-.441 0-.786-.094-1.572l-.44-2.294h-5.815l-.471 2.294c-.094.786-.22 1.131-.094 1.572h-4.149c.188-.503.346-.975.471-1.572l5.281-20.713h3.96l5.06 20.713c.126.597.283 1.069.472 1.572zm-9.838-7.324h4.432l-2.232-9.712z"></path><path d="m292.447 328.306c0-.88.692-1.572 1.572-1.572s1.571.723 1.571 1.603c0 .315 0 .66-.031 1.006 0 .126 0 .251-.032.409-.251 1.414-1.571 2.42-3.017 2.42h-.063z"></path><path d="m279.152 345.561 7.449-.126-.503 3.521h-10.749c.063-.503.126-1.038.126-1.572v-18.953c0-.597-.063-1.194-.126-1.76h3.929c-.126.566-.126 1.258-.126 1.76z"></path><path d="m248.583 330.129v17.255c0 .534.063 1.069.126 1.572h-3.929c.094-.503.126-1.038.126-1.572v-17.255l-5.061.094.503-3.552h12.855l.535 3.552z"></path><path d="m235.587 348.956h-4.18c.125-.441 0-.786-.095-1.572l-.44-2.294h-5.814l-.472 2.294c-.094.786-.22 1.131-.094 1.572h-4.149c.189-.503.346-.975.472-1.572l5.28-20.713h3.96l5.06 20.713c.126.597.283 1.069.472 1.572zm-9.838-7.324h4.432l-2.232-9.712z"></path><path d="m204.574 326.671c3.992 0 9.241 3.363 9.241 11.284 0 8.203-5.563 11.001-8.926 11.001-1.352 0-4.966 0-4.966 0 .062-.503.125-1.038.125-1.572v-18.953c0-.597-.063-1.194-.125-1.76zm-.031 18.89c2.043-.031 5.626-2.326 5.626-7.512 0-5.28-2.829-7.826-5.972-7.826h-.471v15.338z"></path><path d="m189.637 328.431-.032 18.953c0 .534.063 1.069.157 1.572h-4.683c.063-.409.126-.849-.063-1.698l-5.374-15.683.063 15.809c0 .534.031 1.069.125 1.572h-3.928c.062-.503.125-1.038.125-1.572v-18.953c0-.597-.063-1.194-.125-1.76h6.129l4.148 13.075-.251-11.315c0-.597-.032-1.194-.126-1.76h3.96c-.125.566-.125 1.258-.125 1.76z"></path><path d="m165.905 328.431v9.65c0 7.763-1.666 11.189-7.229 11.189-5.594 0-7.26-3.426-7.26-11.189h.031v-9.65c0-.597-.063-1.194-.125-1.76h3.928c-.125.566-.125 1.258-.125 1.76v10.058c.063 4.306.597 7.449 3.551 7.449 2.923 0 3.458-3.143 3.552-7.386v-10.121c0-.502 0-1.194-.126-1.76h3.929c-.063.566-.126 1.163-.126 1.76z"></path><path d="m134.763 330.129v5.783h6.757v3.803h-6.757v7.732c0 .534.031 1.037.126 1.571h-3.929c.063-.534.126-1.037.126-1.571v-18.953c0-.597-.063-1.194-.126-1.76h11.943l.315 3.52z"></path><path d="m84.3306 225.329v34.353c0 1.064.1252 2.128.2503 3.129h-7.8217c.1877-1.001.2503-2.065.2503-3.129v-34.353l-10.0744.188 1.0011-7.071h25.5928l1.0638 7.071z"></path><path d="m121.578 241.285v14.893l16.833-.313-.626 7.071h-23.778c.125-1.064.25-2.065.25-3.129v-37.732c0-1.189-.125-2.378-.25-3.504h23.778l.626 7.008-16.833-.25v8.385h13.454v7.571z"></path><path d="m187.292 221.95-.062 37.732c0 1.064.125 2.128.313 3.129h-9.324c.125-.814.25-1.69-.125-3.379l-10.7-31.225.125 31.475c0 1.064.063 2.128.25 3.129h-7.822c.126-1.001.251-2.065.251-3.129v-37.732c0-1.189-.125-2.378-.251-3.504h12.202l8.26 26.031-.5-22.527c0-1.189-.063-2.378-.251-3.504h7.885c-.251 1.126-.251 2.503-.251 3.504z"></path><path d="m238.244 221.95-.063 37.732c0 1.064.125 2.128.313 3.129h-9.323c.125-.814.25-1.69-.126-3.379l-10.7-31.225.125 31.475c0 1.064.063 2.128.251 3.129h-7.822c.125-1.001.25-2.065.25-3.129v-37.732c0-1.189-.125-2.378-.25-3.504h12.202l8.26 26.031-.501-22.527c0-1.189-.063-2.378-.25-3.504h7.884c-.25 1.126-.25 2.503-.25 3.504z"></path><path d="m269.422 221.95v37.732c0 1.064.062 2.128.25 3.129h-7.822c.125-1.001.251-2.065.251-3.129v-37.732c0-1.189-.126-2.378-.251-3.504h7.822c-.25 1.126-.25 2.503-.25 3.504z"></path><path d="m309.084 237.155c3.63 1.815 9.699 4.944 9.699 13.579 0 3.129-.876 6.445-3.379 8.948-2.628 2.691-6.632 3.88-10.762 3.817-5.82-.125-11.013-3.254-14.267-7.947l3.191-6.257c2.44 4.005 6.57 7.509 11.389 7.634 4.067.062 7.133-2.065 6.82-6.946-.25-4.881-5.256-6.257-12.452-10.888-8.01-5.193-6.946-16.019-.188-20.149 6.57-4.004 15.769.376 18.021 2.566l-3.191 6.132c-2.315-1.439-4.63-3.191-8.26-3.191-3.566 0-4.63 2.503-4.63 4.63 0 2.191.626 4.443 8.009 8.072z"></path><path d="m387.992 256.178c3.254 0 5.945-1.251 5.945-1.251l2.69 6.507s-3.691 2.128-8.635 2.128c-6.445 0-19.46-3.129-19.46-22.527s13.891-23.277 19.335-23.277c4.818 0 8.886 2.315 8.886 2.315l-2.441 7.258s-3.003-1.814-6.32-1.814c-3.316 0-11.889 2.315-11.889 15.205 0 13.391 6.946 15.456 11.889 15.456z"></path><path d="m424.83 256.053 14.83-.25-1.001 7.008h-21.4c.125-1.001.25-2.065.25-3.129v-37.732c0-1.189-.125-2.378-.25-3.504h7.822c-.251 1.126-.251 2.503-.251 3.504z"></path><path d="m485.193 221.95v19.21c0 15.456-3.316 22.277-14.392 22.277-11.138 0-14.454-6.821-14.454-22.277h.062v-19.21c0-1.189-.125-2.378-.25-3.504h7.822c-.251 1.126-.251 2.503-.251 3.504v20.024c.125 8.572 1.189 14.83 7.071 14.83 5.82 0 6.883-6.258 7.071-14.705v-20.149c0-1.001 0-2.378-.25-3.504h7.821c-.125 1.126-.25 2.315-.25 3.504z"></path><path d="m526.683 238.532c3.566 1.752 6.32 5.006 6.32 11.263 0 12.265-9.512 13.016-16.958 13.016h-7.822c.126-1.001.251-2.065.251-3.129v-37.732c0-1.189-.125-2.378-.251-3.504h7.572c5.444 0 13.766 1.877 13.766 11.639 0 4.067-1.064 6.758-2.878 8.447zm-10.888-14.329v12.202c2.816 0 6.946-.251 6.946-6.32 0-6.133-5.444-5.882-6.946-5.882zm0 32.914c5.944-.063 10.199-1.002 10.199-7.384 0-6.445-5.193-7.884-10.199-7.509z"></path><path d="m143.92 25.0296h17.564l17.093-25.0296h-23.601z"></path><path d="m57.9999 98.8044c11.2508 5.6256 30.0668 15.3246 30.0668 42.0936 0 9.699-2.7157 19.98-10.4749 27.739-8.1471 8.341-20.5618 12.027-33.3645 11.833-18.0401-.388-34.1404-10.087-44.2273-24.636l9.89296-19.398c7.56524 12.415 20.36784 23.278 35.30424 23.666 12.6087.194 22.1137-6.401 21.1438-21.532-.7759-15.13-16.2943-19.398-38.6019-33.752-24.8294-16.1006-21.53176-49.6591-.582-62.4617 20.3679-12.4148 48.8829 1.1638 55.8662 7.9531l-9.893 19.01c-7.1773-4.4615-14.3545-9.8929-25.6053-9.8929-11.0568 0-14.3545 7.7592-14.3545 14.3545 0 6.7893 1.9398 13.7725 24.8294 25.0234z"></path><path d="m159.441 38.6706c25.605 0 50.24 22.3077 50.24 72.5484 0 47.913-21.143 69.057-50.24 69.057-28.903 0-50.047-21.144-50.047-69.057 0-50.2407 24.635-72.5484 50.047-72.5484zm0 121.0434c18.816 0 26.769-20.756 26.769-48.495 0-29.0969-10.863-49.8527-26.769-49.4648-15.713.194-26.576 20.3679-26.576 49.4648 0 27.739 7.76 48.495 26.576 48.495z"></path><path d="m262.538 157.386 45.973-.776-3.104 21.726h-66.341c.388-3.104.776-6.401.776-9.699v-116.9697c0-3.6856-.388-7.3713-.776-10.8629h24.248c-.776 3.4916-.776 7.7592-.776 10.8629z"></path><path d="m353.466 157.386 45.973-.776-3.104 21.726h-66.341c.388-3.104.776-6.401.776-9.699v-116.9697c0-3.6856-.388-7.3713-.776-10.8629h24.248c-.776 3.4916-.776 7.7592-.776 10.8629z"></path><path d="m444.394 111.607v46.167l52.18-.97-1.94 21.92h-73.712c.388-3.298.776-6.401.776-9.699v-116.9698c0-3.6856-.388-7.3712-.776-10.8628h73.712l1.94 21.7257-52.18-.7759v25.9933h41.705v23.4715z"></path><path d="m594.957 168.637c1.357 3.298 3.103 6.595 5.043 9.699h-24.441c-.776-3.104-1.94-6.401-3.298-9.699l-8.923-21.338c-6.014 1.94-11.445 2.716-15.325 2.716v18.622c0 3.298.194 6.595.776 9.699h-24.247c.388-3.104.776-6.401.776-9.699v-116.9697c0-3.6856-.388-7.3713-.776-10.8629h23.471c16.877 0 50.047 7.5652 50.047 53.5384 0 20.9502-7.177 34.1402-16.488 42.6752zm-46.944-105.9129v66.7289c9.505-.582 29.097-7.371 29.097-35.1102 0-27.7391-18.622-31.4247-29.097-31.6187z"></path></g></svg>